<?xml version="1.0" encoding="UTF-8" standalone="no"?>
<!DOCTYPE svg PUBLIC "-//W3C//DTD SVG 1.1//EN" "http://www.w3.org/Graphics/SVG/1.1/DTD/svg11.dtd">
<svg version="1.1" xmlns="http://www.w3.org/2000/svg" xmlns:xlink="http://www.w3.org/1999/xlink" preserveAspectRatio="xMidYMid meet" viewBox="0 0 640 640" width="640" height="640"><defs><path d="M518.56 155.33C573.47 155.33 617.97 199.84 617.97 254.74C617.97 331.36 617.97 455.37 617.97 530.38C617.97 589.72 569.87 637.82 510.53 637.82C414.19 637.82 232.61 637.82 136.27 637.82C76.93 637.82 28.83 589.72 28.83 530.38C28.83 455.37 28.83 336.87 28.83 261.63C28.83 202.92 76.42 155.33 135.13 155.33C231.7 155.33 420.62 155.33 518.56 155.33Z" id="e2aQdAFPLZ"></path><path d="M638.65 491.89C638.05 532.36 581.42 542.07 557.26 562.75C523.21 591.91 505.99 629.79 502.53 627C496.61 622.22 458.12 499.46 478.36 441.49C498.59 383.53 564.03 277.78 606.49 296.77C648.95 315.76 639.24 451.42 638.65 491.89Z" id="f3z8KPELbm"></path><path d="M300.42 507.26C279.61 557.65 242.17 555.9 217.58 575.93C182.93 604.17 164.93 641.58 161.53 638.7C155.72 633.76 119.78 510.01 141.22 452.6C162.66 395.19 214.21 364.91 256.26 385.04C298.31 405.16 321.23 456.88 300.42 507.26Z" id="k22M3AQZ9X"></path><path d="M442.47 435.19C465.21 484.49 441.25 517.12 440.39 551.4C439.19 599.71 454.52 638.61 450.43 639.92C443.44 642.15 334.75 599.41 307.46 545.28C280.17 491.16 290.2 426.41 329.85 400.78C369.51 375.15 419.73 385.9 442.47 435.19Z" id="a2nlFAF96z"></path><path d="M165.1 499.7C145.43 533.55 110.35 523.9 87.25 533.73C54.69 547.6 37.7 572.17 34.52 569.21C29.09 564.15 1.67 407.89 21.95 368.81C42.22 329.73 84.77 371.84 124.11 396.55C163.45 421.26 184.76 465.85 165.1 499.7Z" id="dKzsJMbBW"></path><path d="M25.49 408.6C45.25 459.53 82.72 458.78 106.88 479.47C140.94 508.62 158.15 546.51 161.61 543.71C167.53 538.94 206.03 416.17 185.79 358.21C165.55 300.24 77.59 218.05 35.13 237.04C-7.32 256.03 5.73 357.67 25.49 408.6Z" id="a22hpT6hED"></path><path d="M349.53 423.98C370.35 474.37 407.79 472.61 432.37 492.65C467.02 520.89 485.02 558.3 488.42 555.41C494.24 550.48 530.17 426.72 508.73 369.31C487.3 311.9 435.75 281.63 393.7 301.75C351.64 321.87 328.72 373.59 349.53 423.98Z" id="aUDTOv01r"></path><path d="M207.49 351.91C184.74 401.21 208.7 433.84 209.56 468.11C210.77 516.43 195.43 555.32 199.52 556.63C206.51 558.87 315.21 516.12 342.5 462C369.79 407.88 359.75 343.12 320.1 317.49C280.45 291.86 230.23 302.61 207.49 351.91Z" id="d1QX37PIXK"></path><path d="M469.85 400.11C484.05 436.6 520.2 432.47 541.51 445.75C571.54 464.48 584.53 491.37 588.13 488.94C594.28 484.78 625.4 386.91 628.96 346.91C632.52 306.92 654.72 220.66 612.04 239C569.36 257.34 455.64 363.63 469.85 400.11Z" id="c4k6u9j64"></path><path d="M514.22 0C568.25 0 612.04 43.79 612.04 97.82C612.04 140.76 612.04 165.45 612.04 206.82C612.04 265.2 564.71 312.54 506.32 312.54C411.53 312.54 232.87 312.54 138.07 312.54C79.69 312.54 32.35 265.2 32.35 206.82C32.35 165.45 32.35 146.18 32.35 104.59C32.35 46.83 79.18 0 136.94 0C231.96 0 417.85 0 514.22 0Z" id="e1xaAMRoOs"></path><path d="M35.13 259.92L612.04 259.92L612.04 399.36L35.13 399.36L35.13 259.92Z" id="b2MPxkAWL"></path><path d="M70.68 144.88L591.28 144.88L591.28 270.37L70.68 270.37L70.68 144.88Z" id="bgDXQCGUZ"></path><path d="M10.93 282.97C29.4 330.64 64.43 329.94 87.01 349.29C118.85 376.58 134.94 412.03 138.18 409.42C143.71 404.95 179.7 290.06 160.78 235.81C141.86 181.56 74.83 87.46 35.13 105.23C-4.56 123 -7.55 235.31 10.93 282.97Z" id="c23EViXORG"></path><path d="M632.74 272.39C613.28 319.55 578.28 317.91 555.3 336.66C522.9 363.09 506.07 398.1 502.89 395.4C497.46 390.78 463.86 274.96 483.91 221.23C503.95 167.5 551.97 79.91 591.28 98.74C630.59 117.57 652.19 225.23 632.74 272.39Z" id="b5eUQ13Zy"></path><path d="M312.51 235.15C333.77 281.28 311.37 311.82 310.57 343.9C309.44 389.11 323.78 425.51 319.96 426.74C313.42 428.83 211.81 388.83 186.29 338.18C160.78 287.52 170.16 226.92 207.23 202.94C244.3 178.95 291.25 189.01 312.51 235.15Z" id="a9bE2Kzp8"></path><path d="M317.75 275.03C331.03 309.17 364.82 305.31 384.74 317.74C412.82 335.27 424.97 360.44 428.33 358.16C434.08 354.27 479.59 264.3 466.5 225.24C453.41 186.18 410.38 168.4 370.48 185.57C330.58 202.74 304.47 240.89 317.75 275.03Z" id="c1QcVjvxe"></path><path d="M633.47 168.69C615 216.36 579.97 215.65 557.38 235.01C525.54 262.3 509.45 297.75 506.21 295.14C500.68 290.67 464.69 175.78 483.61 121.53C502.54 67.28 517.69 -3.57 557.38 14.21C597.07 31.98 651.94 121.03 633.47 168.69Z" id="c1rgmiEdsj"></path><path d="M159.51 158.11C140.06 205.27 105.05 203.63 82.07 222.38C49.67 248.81 32.85 283.82 29.67 281.12C24.23 276.5 -9.36 160.68 10.68 106.95C30.72 53.22 96.48 -10.92 135.79 7.91C175.11 26.74 178.97 110.95 159.51 158.11Z" id="eWdEaXnVl"></path><path d="M331.88 120.86C310.62 167 333.02 197.54 333.82 229.62C334.95 274.83 320.61 311.23 324.44 312.46C330.97 314.55 432.59 274.55 458.1 223.89C483.61 173.24 474.23 112.64 437.16 88.65C400.09 64.67 353.14 74.73 331.88 120.86Z" id="b8m6OhcE4N"></path><path d="M326.65 160.75C313.36 194.89 279.57 191.03 259.65 203.46C231.57 220.98 219.43 246.15 216.07 243.88C210.32 239.98 164.8 150.02 177.9 110.96C190.99 71.9 234.01 54.12 273.91 71.29C313.81 88.45 339.93 126.61 326.65 160.75Z" id="apJnHNthB"></path></defs><g><g><g><g><use xlink:href="#e2aQdAFPLZ" opacity="1" fill="#664b3c" fill-opacity="1"></use></g><g><g><g><use xlink:href="#f3z8KPELbm" opacity="1" fill="#755543" fill-opacity="1"></use></g><g><use xlink:href="#k22M3AQZ9X" opacity="1" fill="#755543" fill-opacity="1"></use></g><g><use xlink:href="#a2nlFAF96z" opacity="1" fill="#755543" fill-opacity="1"></use></g><g><use xlink:href="#dKzsJMbBW" opacity="1" fill="#755543" fill-opacity="1"></use></g></g></g><g><g><g><use xlink:href="#a22hpT6hED" opacity="1" fill="#805e4b" fill-opacity="1"></use></g><g><use xlink:href="#aUDTOv01r" opacity="1" fill="#805e4b" fill-opacity="1"></use></g><g><use xlink:href="#d1QX37PIXK" opacity="1" fill="#805e4b" fill-opacity="1"></use></g><g><use xlink:href="#c4k6u9j64" opacity="1" fill="#805e4b" fill-opacity="1"></use></g></g></g><g><use xlink:href="#e1xaAMRoOs" opacity="1" fill="#966f5a" fill-opacity="1"></use></g><g><use xlink:href="#b2MPxkAWL" opacity="1" fill="#805e4b" fill-opacity="1"></use></g><g><use xlink:href="#bgDXQCGUZ" opacity="1" fill="#8d6956" fill-opacity="1"></use></g><g><g><g><use xlink:href="#c23EViXORG" opacity="1" fill="#8a6754" fill-opacity="1"></use></g><g><use xlink:href="#b5eUQ13Zy" opacity="1" fill="#8a6754" fill-opacity="1"></use></g><g><use xlink:href="#a9bE2Kzp8" opacity="1" fill="#8a6754" fill-opacity="1"></use></g><g><use xlink:href="#c1QcVjvxe" opacity="1" fill="#8a6754" fill-opacity="1"></use></g></g></g><g><g><g><use xlink:href="#c1rgmiEdsj" opacity="1" fill="#966f5a" fill-opacity="1"></use></g><g><use xlink:href="#eWdEaXnVl" opacity="1" fill="#966f5a" fill-opacity="1"></use></g><g><use xlink:href="#b8m6OhcE4N" opacity="1" fill="#966f5a" fill-opacity="1"></use></g><g><use xlink:href="#apJnHNthB" opacity="1" fill="#966f5a" fill-opacity="1"></use></g></g></g></g></g></g></svg>