<?xml version="1.0" encoding="UTF-8" standalone="no"?>
<!DOCTYPE svg PUBLIC "-//W3C//DTD SVG 1.1//EN" "http://www.w3.org/Graphics/SVG/1.1/DTD/svg11.dtd">
<svg version="1.1" xmlns="http://www.w3.org/2000/svg" xmlns:xlink="http://www.w3.org/1999/xlink" preserveAspectRatio="xMidYMid meet" viewBox="0 0 640 640" width="500" height="500"><defs><path d="M0 0L639.94 0L639.94 640L0 640L0 0Z" id="d1tCT4Z0dG"></path><path d="M243.35 617.84C267.3 603.4 264.93 563.21 264.93 548.39C264.93 516.87 194.09 478.34 144.67 478.34C95.26 478.34 32.89 516.87 8.52 537.61C-5.97 549.96 10.75 607.54 16.02 613.36C31.01 629.87 72.68 632.46 135.14 623.83C197.6 615.21 216.34 634.13 243.35 617.84Z" id="fRUA4bA8b"></path><path d="M451.41 244.93C469.64 241.52 502.95 204.42 498.66 190.8C488.07 157.15 451.49 123.89 423.73 86.53C392.43 44.39 379.21 8 360.92 8C326.42 8 256.03 117.08 256.03 170.32C256.03 186.29 227.36 215.15 243.03 231.14C279.61 268.45 383.39 288.33 407.54 288.33C428.07 288.33 424.62 249.94 451.41 244.93Z" id="hS9SrBg84"></path><path d="M634.39 131.73C634.39 107.64 619.32 11.3 603.53 11.3C587.75 11.3 520.76 32.26 520.76 56.35C520.76 63.83 480.14 116.76 499.04 156.25C514.81 189.21 515.19 226.65 533.41 237.17C551.63 247.69 619.12 231.43 625.91 231.43C641.7 231.43 634.39 155.82 634.39 131.73Z" id="cg4HVQhxV"></path><path d="M361.98 383.5C361.98 372.22 346.56 311.85 330.91 298.26C315.26 284.68 265.08 258.37 252.92 258.37C241.81 258.37 204.16 296.45 213.68 315.07C223.2 333.69 238.35 371.16 238.35 383.5C238.35 406.99 338.59 444.82 361.98 444.82C385.37 444.82 361.98 406.99 361.98 383.5Z" id="a3luUomkzd"></path><path d="M636.08 317.44C635.8 274.33 600.34 263.95 602.69 258.37C608.97 243.42 553.86 285.36 548.46 281.11C530.45 266.94 500.02 234.66 485.95 234.66C478.35 234.66 458.02 265.36 431.96 288.33C409.77 307.9 384.27 294.25 377.68 340.82C371.09 387.39 393.8 436.29 488.87 451.8C583.94 467.3 624.14 446.44 628.98 442.66C648.35 427.58 636.35 360.56 636.08 317.44Z" id="cqSaY5c8j"></path><path d="M636.08 574.69C636.08 554.17 650.48 489.12 594.92 478.34C539.35 467.56 563.18 527.22 539.87 543.43C531.6 549.19 485.59 545.47 492.21 556.36C492.94 557.56 482.47 537.85 465.14 524.83C450.67 513.97 430.14 509.41 419.48 510.17C401.8 511.42 408.27 563.01 415.36 570.95C431.83 589.4 421.5 617.77 434.08 625.82C459.75 642.27 593.36 625.82 601.27 625.82C623.99 625.82 636.08 595.21 636.08 574.69Z" id="bfqBiH3b9"></path><path d="M514.55 534.66C532.57 533.54 555.56 498 544.17 482.93C536.08 472.24 452.52 452.07 440.39 452.07C411.15 452.07 429.79 468.87 429.79 482.93C429.79 496.99 435.52 508.41 464.76 508.41C493.99 508.41 496.54 535.79 514.55 534.66Z" id="h8wjFkTP6"></path><path d="M394.63 571.99C387.8 550.21 412.61 500.69 401.18 498.22C377.87 493.19 381.53 472.95 365.16 472.95C348.79 472.95 292.54 460.26 264.99 444.82C254.39 438.87 234.7 467.52 246.71 491.27C256.58 510.81 290.23 556.25 284.02 583.88C277.82 611.51 331.67 595.7 336.55 595.7C344.9 595.7 401.45 593.78 394.63 571.99Z" id="ckfdkHEDh"></path><path d="M125.29 458.05C141.85 446.23 190.12 482.6 204.2 468.39C227.18 445.21 211.95 371.57 211.95 359.8C211.95 341.65 184.44 328.81 159.32 311.22C138.77 296.84 121.92 275.72 105.47 275.72C68.92 275.72 4.29 346.71 4.29 379.72C4.29 412.74 8.53 491.27 45.08 491.27C60.61 491.27 93.08 481.03 125.29 458.05Z" id="b1WCrTGYt6"></path><path d="M256.07 95.32C256.07 66.17 281.48 49.57 256.07 22.62C246.16 12.12 132.23 4.91 119.43 13.32C110.32 19.3 97.68 38.82 73.79 58.29C49.89 77.77 6.32 78.83 13.63 102.41C18.7 118.8 10.64 159.66 10.64 163.64C10.64 192.78 133.92 281.11 165.69 281.11C197.46 281.11 256.07 124.46 256.07 95.32Z" id="g6uAujxMoZ"></path><path d="M506.52 21.72C501.27 8 431.01 2.98 418.75 14.58C410.05 22.81 439.18 84.96 441.96 94.34C448.67 116.95 460.98 99.43 474.87 96.83C488.75 94.23 506.58 102.22 499.87 79.61C493.17 57 511.76 35.44 506.52 21.72Z" id="c9duv2eJv"></path><path d="M10.54 232.11C2.19 240.07 1.12 311.69 10.54 321.05C17.22 327.69 54.28 286.47 60.11 281.8C74.14 270.55 60.79 262.4 57.1 249.57C53.41 236.75 18.89 224.15 10.54 232.11Z" id="a1ii8aFnm1"></path><path d="M46.08 0.15C34.79 2.23 -0.48 47.67 3.47 57.05C6.27 63.7 59.21 50.67 66.66 49.78C84.62 47.63 76.57 37.61 79.41 28.08C82.25 18.55 57.37 -1.94 46.08 0.15Z" id="ae5n4C7CO"></path><path d="M18.84 526.19C18.84 552.96 -12.23 596.24 25.19 596.24C37.54 596.24 68.13 600.34 93.66 572.5C103.24 562.06 124.61 564.96 147.58 563.63C185.88 561.41 246.03 542.25 246.03 531.04C246.03 504.27 198.24 499.25 160.81 499.25C123.39 499.25 18.84 499.42 18.84 526.19Z" id="a1sGvcAUd"></path><path d="M248.29 449.73C248.29 456.1 242.57 457.87 241.47 483.68C240.41 508.49 280.27 557.5 296.6 557.5C319.27 557.5 297.02 529.02 316.13 505.51C320.81 499.76 360.08 542.02 382.47 544.04C403.14 545.91 382.47 507.43 382.47 505.51C382.47 493.02 392.97 460.51 353.28 449.73C313.59 438.95 248.29 437.24 248.29 449.73Z" id="b3KHSEcVq8"></path><path d="M458.47 531.11C429.79 533.32 430.43 506.73 424.04 509.82C377.2 532.42 443.39 622.96 443.39 631.58C443.39 637.41 471.26 598.51 495.12 594.02C519.96 589.35 547.35 582.98 555.7 582.98C572.08 582.98 634.11 643.48 634.11 631.58C634.11 619.69 616.58 543.74 600.2 543.74C597.32 543.74 509.47 527.17 458.47 531.11Z" id="cbtahlPlw"></path><path d="M545.62 487.94C545.62 477.53 463.08 450.22 442.32 450.22C421.56 450.22 413.18 478.07 446.03 480.94C478.87 483.8 498.91 513.81 519.67 513.81C540.43 513.81 545.62 498.35 545.62 487.94Z" id="a1MSRM89X5"></path><path d="M197.74 380.95C224.03 388.79 205.43 311.33 205.43 301.59C205.43 287.22 175.17 313.21 150.73 301.59C132.66 292.99 122.58 275.33 105.31 275.33C64.67 275.33 9.42 296.69 9.42 321.67C9.42 335.91 -1.98 394.35 22.17 399.34C40.39 403.1 107.97 369.1 125.44 369.1C150.23 369.1 171.46 373.11 197.74 380.95Z" id="ab0l8fWY0"></path><path d="M352.49 361.59C352.49 355.89 354.02 328.9 337.42 312.99C320.81 297.07 345.16 287.41 325.08 279.58C305 271.75 227.51 246.73 229.06 259.75C232.01 284.53 210.52 273.8 210.52 299.08C210.52 324.36 257.44 380.45 285.21 380.45C312.99 380.45 352.49 386.87 352.49 361.59Z" id="ac7h7veKM"></path><path d="M579.9 271.09C606.54 274.04 633.51 288.93 634.13 299.02C634.47 304.4 652.2 367.83 640.11 387.76C622.34 417.03 557.74 430.47 537.37 402.4C517 374.32 487.46 379.28 450.91 379.28C414.36 379.28 384.69 363.14 384.69 343.27C384.69 323.39 398.47 294.32 435.02 294.32C450.92 294.32 556.74 268.53 579.9 271.09Z" id="bIyRh9gkK"></path><path d="M267.93 34.57C267.93 32.33 313.83 33.45 194.72 6.43C75.61 -20.59 110.67 55.75 80.74 55.76C63.21 55.77 48.08 107.09 37.77 108.65C25.59 110.5 72.9 132.17 75.53 144.03C78.16 155.88 82.43 170.29 88.55 188.75C92.55 200.81 140.31 187.88 140.31 191.99C140.31 202.4 190.34 222.35 210.52 222.35C230.69 222.35 267.93 44.97 267.93 34.57Z" id="g3dZwvuD1v"></path><path d="M407.59 237.43C407.59 220.76 434.85 191.19 413.09 165.85C411.64 164.16 473.63 152.61 476.79 144.38C480.42 134.91 411.16 72.61 407.59 64.96C397.36 43.04 367.01 2.78 360.37 6.7C350.23 12.67 314.09 36 296.34 58.98C278.58 81.95 261.96 129.42 261.96 157.68C261.96 185.93 292.82 234.2 315.18 234.2C337.53 234.2 407.59 265.68 407.59 237.43Z" id="aebqwO2Km"></path><path d="M566.82 173.35C556.85 175.44 511.41 171.69 499.24 156.68C479.38 132.19 550.11 110.06 546.74 104.29C537.93 89.19 564.53 56.41 564.53 45.5C564.53 25.12 595.12 9.72 608.28 9.72C621.43 9.72 634.11 40.49 634.11 60.87C634.11 81.25 621.43 152.53 608.28 152.53C606.65 152.53 590.55 168.37 566.82 173.35Z" id="f1ZC5fsMe"></path><path d="M425.53 7.9C415.25 9.82 420.77 46.14 425.53 62.19C430.29 78.25 489.27 79.58 484.56 53.65C479.86 27.72 476.74 37.38 471.98 21.32C467.22 5.27 435.81 5.97 425.53 7.9Z" id="dclrpaDLH"></path><path d="M7.7 318.4C10.43 327.9 47.87 294.73 57.84 286.74C67.8 278.76 68.21 248.03 51.69 258.05C35.17 268.07 27.85 269.84 17.89 277.83C7.92 285.81 4.97 308.91 7.7 318.4Z" id="a6xRGKsQH"></path><path d="M15.91 51.54C13.33 60.19 54.23 53.05 64.72 51.8C75.21 50.55 89.83 27.08 73.94 26.69C58.05 26.29 52.26 24.06 41.76 25.31C31.27 26.56 18.49 42.89 15.91 51.54Z" id="f5ACBtfSS0"></path></defs><g><g><g><use xlink:href="#d1tCT4Z0dG" opacity="1" fill="#4b4643" fill-opacity="1"></use></g><g><g><g><g><use xlink:href="#fRUA4bA8b" opacity="1" fill="#544e4b" fill-opacity="1"></use></g><g><use xlink:href="#hS9SrBg84" opacity="1" fill="#544e4b" fill-opacity="1"></use></g><g><use xlink:href="#cg4HVQhxV" opacity="1" fill="#544e4b" fill-opacity="1"></use></g><g><use xlink:href="#a3luUomkzd" opacity="1" fill="#544e4b" fill-opacity="1"></use></g><g><use xlink:href="#cqSaY5c8j" opacity="1" fill="#544e4b" fill-opacity="1"></use></g><g><use xlink:href="#bfqBiH3b9" opacity="1" fill="#544e4b" fill-opacity="1"></use></g><g><use xlink:href="#h8wjFkTP6" opacity="1" fill="#544e4b" fill-opacity="1"></use></g><g><use xlink:href="#ckfdkHEDh" opacity="1" fill="#544e4b" fill-opacity="1"></use></g></g><g><use xlink:href="#b1WCrTGYt6" opacity="1" fill="#544e4b" fill-opacity="1"></use></g><g><use xlink:href="#g6uAujxMoZ" opacity="1" fill="#544e4b" fill-opacity="1"></use></g></g><g><use xlink:href="#c9duv2eJv" opacity="1" fill="#544e4b" fill-opacity="1"></use></g><g><use xlink:href="#a1ii8aFnm1" opacity="1" fill="#544e4b" fill-opacity="1"></use></g><g><use xlink:href="#ae5n4C7CO" opacity="1" fill="#544e4b" fill-opacity="1"></use></g></g><g><use xlink:href="#a1sGvcAUd" opacity="1" fill="#655f5b" fill-opacity="1"></use></g><g><use xlink:href="#b3KHSEcVq8" opacity="1" fill="#655f5b" fill-opacity="1"></use></g><g><use xlink:href="#cbtahlPlw" opacity="1" fill="#655f5b" fill-opacity="1"></use></g><g><use xlink:href="#a1MSRM89X5" opacity="1" fill="#655f5b" fill-opacity="1"></use></g><g><use xlink:href="#ab0l8fWY0" opacity="1" fill="#655f5b" fill-opacity="1"></use></g><g><use xlink:href="#ac7h7veKM" opacity="1" fill="#655f5b" fill-opacity="1"></use></g><g><use xlink:href="#bIyRh9gkK" opacity="1" fill="#655f5b" fill-opacity="1"></use></g><g><use xlink:href="#g3dZwvuD1v" opacity="1" fill="#655f5b" fill-opacity="1"></use></g><g><use xlink:href="#aebqwO2Km" opacity="1" fill="#655f5b" fill-opacity="1"></use></g><g><use xlink:href="#f1ZC5fsMe" opacity="1" fill="#655f5b" fill-opacity="1"></use></g><g><use xlink:href="#dclrpaDLH" opacity="1" fill="#655f5b" fill-opacity="1"></use></g><g><use xlink:href="#a6xRGKsQH" opacity="1" fill="#655f5b" fill-opacity="1"></use></g><g><use xlink:href="#f5ACBtfSS0" opacity="1" fill="#655f5b" fill-opacity="1"></use></g></g></g></svg>